<svg width="48" height="48" viewBox="0 0 48 48" fill="none" xmlns="http://www.w3.org/2000/svg">
<g clip-path="url(#clip0_156_175)">
<g clip-path="url(#clip1_156_175)">
<rect opacity="0.1" width="48" height="48" rx="24" fill="#6D5DD3"/>
</g>
<path d="M29.625 18.3086C29.625 18.1172 29.543 17.9531 29.4062 17.8164C29.2695 17.707 29.1055 17.625 28.9414 17.625H18.0586C17.8398 17.625 17.6758 17.707 17.5664 17.8164C17.4297 17.9531 17.375 18.1172 17.375 18.3086V29.1914C17.375 29.3828 17.4297 29.5469 17.5664 29.6836C17.6758 29.8203 17.8398 29.875 18.0586 29.875H23.9102V25.1172H22.3242V23.2852H23.9102V21.918C23.9102 21.1523 24.1289 20.5508 24.5664 20.1133C25.0039 19.7031 25.5781 19.4844 26.2891 19.4844C26.8359 19.4844 27.3281 19.5117 27.7109 19.5391V21.207H26.7266C26.3711 21.207 26.125 21.2891 25.9883 21.4531C25.8789 21.5898 25.8242 21.8086 25.8242 22.1094V23.2852H27.6562L27.4102 25.1172H25.8242V29.875H28.9414C29.1328 29.875 29.2969 29.8203 29.4336 29.6836C29.543 29.5469 29.625 29.3828 29.625 29.1914V18.3086Z" fill="white"/>
</g>
<defs>
<clipPath id="clip0_156_175">
<rect width="48" height="48" fill="white"/>
</clipPath>
<clipPath id="clip1_156_175">
<rect width="48" height="48" fill="white"/>
</clipPath>
</defs>
</svg>
