<svg width="48" height="48" viewBox="0 0 48 48" fill="none" xmlns="http://www.w3.org/2000/svg">
<g clip-path="url(#clip0_156_185)">
<g clip-path="url(#clip1_156_185)">
<rect opacity="0.1" width="48" height="48" rx="24" fill="#6D5DD3"/>
</g>
<path d="M21.7578 27.6055C21.7578 27.6055 21.7305 27.5781 21.7031 27.5508C21.6758 27.5508 21.6484 27.5234 21.5938 27.5234C21.4844 27.5234 21.457 27.5781 21.457 27.6328C21.457 27.7148 21.4844 27.7422 21.5938 27.7422C21.7031 27.7422 21.7578 27.6875 21.7578 27.6055ZM20.9102 27.4961C20.9102 27.4414 20.9648 27.4141 21.0742 27.4414C21.1562 27.4688 21.1836 27.4961 21.1836 27.5508C21.1836 27.6055 21.1562 27.6328 21.1289 27.6328C21.0742 27.6602 21.0469 27.6602 21.0195 27.6328C20.9648 27.6328 20.9375 27.6055 20.9102 27.5781C20.8828 27.5508 20.8828 27.5234 20.9102 27.4961ZM22.1133 27.4414C22.1953 27.4414 22.25 27.4688 22.25 27.5234C22.25 27.5781 22.2227 27.6328 22.1406 27.6602C22.0859 27.6602 22.0586 27.6602 22.0312 27.6602C22.0039 27.6602 21.9766 27.6055 21.9766 27.5508C21.9766 27.4961 22.0039 27.4688 22.1133 27.4414ZM23.918 16.9688C25.1484 16.9688 26.2969 17.2695 27.3633 17.8438C28.4023 18.4453 29.25 19.2383 29.8516 20.2227C30.4531 21.2617 30.7812 22.4102 30.7812 23.6406C30.7812 25.1719 30.3438 26.5117 29.4961 27.7148C28.6484 28.918 27.5547 29.7383 26.1875 30.1758C26.0234 30.2305 25.9141 30.2031 25.832 30.1211C25.75 30.0664 25.7227 29.957 25.7227 29.8477V27.5508C25.7227 26.9766 25.5586 26.5664 25.2578 26.293C25.9141 26.2383 26.4336 26.1289 26.7617 26.0195C27.2539 25.8555 27.6641 25.582 27.9375 25.1992C28.2383 24.7344 28.4023 24.0781 28.4023 23.2578C28.4023 22.9297 28.3203 22.6289 28.2109 22.3555C28.1016 22.1914 27.9375 21.9453 27.6914 21.6719C27.7461 21.5078 27.8008 21.2891 27.8281 21.0156C27.8281 20.6328 27.7734 20.2227 27.6367 19.8125C27.4453 19.7578 27.1992 19.8125 26.8711 19.9219C26.6523 20.0312 26.3789 20.1406 26.1055 20.3047L25.75 20.5508C25.1758 20.3867 24.6016 20.3047 24 20.3047C23.3984 20.3047 22.8516 20.3867 22.3047 20.5508L21.9492 20.3047C21.6484 20.1406 21.375 20.0312 21.1562 19.9219C20.8281 19.8125 20.582 19.7578 20.418 19.8125C20.2539 20.2227 20.1719 20.6328 20.2266 21.0156C20.2266 21.2891 20.2539 21.4805 20.3359 21.6445C20.1172 21.918 19.9531 22.1914 19.8438 22.4102C19.7344 22.6289 19.707 22.9297 19.707 23.2578C19.707 24.0781 19.8438 24.7344 20.1445 25.1719C20.3906 25.5547 20.7734 25.8555 21.293 26.0195C21.6211 26.1289 22.1133 26.2383 22.7695 26.293C22.5234 26.5117 22.3867 26.8398 22.332 27.2227C22.0039 27.3867 21.7031 27.4414 21.4297 27.3867C20.9375 27.3594 20.582 27.1133 20.3359 26.6484C20.2266 26.457 20.0625 26.293 19.8984 26.1562C19.7617 26.1016 19.625 26.0195 19.4883 25.9648L19.2969 25.9375C19.0781 25.9375 18.9688 25.9922 18.9688 26.0469C18.9688 26.1016 18.9961 26.1836 19.1055 26.2383L19.2422 26.3477C19.3516 26.4297 19.4883 26.5391 19.625 26.7031C19.7344 26.8398 19.8164 26.9766 19.8984 27.1406L20.0078 27.3594C20.0898 27.6328 20.2539 27.8516 20.5273 27.9883C20.7461 28.125 20.9922 28.207 21.3203 28.2344C21.5391 28.2617 21.7578 28.2617 22.0039 28.207L22.3047 28.1797L22.332 29.8477C22.332 29.957 22.2773 30.0664 22.1953 30.1211C22.1133 30.2031 22.0039 30.2305 21.8672 30.1758C20.4727 29.7383 19.3516 28.918 18.5039 27.7148C17.6289 26.5117 17.2188 25.1719 17.2188 23.6406C17.2188 22.4102 17.4922 21.2891 18.0938 20.25C18.668 19.2383 19.4609 18.4453 20.5 17.8438C21.5117 17.2695 22.6602 16.9688 23.918 16.9688ZM19.8711 26.4023C19.8984 26.375 19.9531 26.375 20.0078 26.4297C20.0625 26.4844 20.0625 26.5391 20.0352 26.5664C19.9805 26.6211 19.9531 26.5938 19.8984 26.5391C19.8438 26.4844 19.8164 26.457 19.8711 26.4023ZM19.5703 26.1836C19.5977 26.1562 19.6523 26.1562 19.707 26.1836C19.7617 26.2109 19.7617 26.2383 19.7617 26.293C19.7344 26.3477 19.6797 26.3477 19.625 26.293C19.5703 26.2656 19.543 26.2383 19.5703 26.1836ZM20.4727 27.1406C20.4727 27.1406 20.5 27.1406 20.5547 27.1406C20.582 27.1406 20.6094 27.168 20.6367 27.1953C20.6641 27.2227 20.6914 27.25 20.6914 27.2773C20.6914 27.332 20.6914 27.3594 20.6914 27.3594C20.6367 27.4141 20.5547 27.4141 20.5 27.332C20.4453 27.3047 20.4453 27.2773 20.4453 27.2227C20.4453 27.1953 20.4453 27.168 20.4727 27.1406ZM20.1445 26.7578C20.1719 26.7578 20.1992 26.7578 20.2266 26.7578C20.2539 26.7578 20.2812 26.7852 20.3086 26.8125C20.3633 26.8945 20.3633 26.9492 20.3086 26.9766C20.2812 27.0039 20.2539 27.0039 20.2266 26.9766C20.1992 26.9766 20.1719 26.9492 20.1445 26.9219C20.0898 26.8398 20.0898 26.7852 20.1445 26.7578Z" fill="white"/>
</g>
<defs>
<clipPath id="clip0_156_185">
<rect width="48" height="48" fill="white"/>
</clipPath>
<clipPath id="clip1_156_185">
<rect width="48" height="48" fill="white"/>
</clipPath>
</defs>
</svg>
