<svg width="48" height="48" viewBox="0 0 48 48" fill="none" xmlns="http://www.w3.org/2000/svg">
<g clip-path="url(#clip0_156_190)">
<g clip-path="url(#clip1_156_190)">
<rect opacity="0.1" width="48" height="48" rx="24" fill="#6D5DD3"/>
</g>
<path d="M23.5 20.6055C24.0469 20.6055 24.5664 20.7695 25.0586 21.043C25.5508 21.3164 25.9336 21.6992 26.207 22.1914C26.4805 22.6836 26.6445 23.2031 26.6445 23.75C26.6445 24.3242 26.4805 24.8438 26.207 25.3359C25.9336 25.8281 25.5508 26.2109 25.0586 26.4844C24.5664 26.7578 24.0469 26.8945 23.5 26.8945C22.9258 26.8945 22.4062 26.7578 21.9141 26.4844C21.4219 26.2109 21.0391 25.8281 20.7656 25.3359C20.4922 24.8438 20.3555 24.3242 20.3555 23.75C20.3555 23.2031 20.4922 22.6836 20.7656 22.1914C21.0391 21.6992 21.4219 21.3164 21.9141 21.043C22.4062 20.7695 22.9258 20.6055 23.5 20.6055ZM23.5 25.8008C24.0469 25.8008 24.5391 25.6094 24.9492 25.1992C25.332 24.8164 25.5508 24.3242 25.5508 23.75C25.5508 23.2031 25.332 22.7109 24.9492 22.3008C24.5391 21.918 24.0469 21.6992 23.5 21.6992C22.9258 21.6992 22.4336 21.918 22.0508 22.3008C21.6406 22.7109 21.4492 23.2031 21.4492 23.75C21.4492 24.3242 21.6406 24.8164 22.0508 25.1992C22.4336 25.6094 22.9258 25.8008 23.5 25.8008ZM27.5195 20.4688C27.5195 20.2773 27.4375 20.1133 27.3008 19.9492C27.1367 19.8125 26.9727 19.7305 26.7812 19.7305C26.5625 19.7305 26.3984 19.8125 26.2617 19.9492C26.0977 20.1133 26.043 20.2773 26.043 20.4688C26.043 20.6875 26.0977 20.8516 26.2617 20.9883C26.3984 21.1523 26.5625 21.207 26.7812 21.207C26.9727 21.207 27.1367 21.1523 27.2734 20.9883C27.4102 20.8516 27.4922 20.6875 27.5195 20.4688ZM29.5977 21.207C29.5977 21.7266 29.625 22.5742 29.625 23.75C29.625 24.9531 29.5977 25.8008 29.5703 26.3203C29.543 26.8398 29.4609 27.2773 29.3516 27.6602C29.1875 28.125 28.9141 28.5352 28.5859 28.8633C28.2578 29.1914 27.8477 29.4375 27.4102 29.6016C27.0273 29.7383 26.5625 29.8203 26.043 29.8477C25.5234 29.875 24.6758 29.875 23.5 29.875C22.2969 29.875 21.4492 29.875 20.9297 29.8477C20.4102 29.8203 19.9727 29.7383 19.5898 29.5742C19.125 29.4375 18.7148 29.1914 18.3867 28.8633C18.0586 28.5352 17.8125 28.125 17.6484 27.6602C17.5117 27.2773 17.4297 26.8398 17.4023 26.3203C17.375 25.8008 17.375 24.9531 17.375 23.75C17.375 22.5742 17.375 21.7266 17.4023 21.207C17.4297 20.6875 17.5117 20.2227 17.6484 19.8398C17.8125 19.4023 18.0586 18.9922 18.3867 18.6641C18.7148 18.3359 19.125 18.0625 19.5898 17.8984C19.9727 17.7891 20.4102 17.707 20.9297 17.6797C21.4492 17.6523 22.2969 17.625 23.5 17.625C24.6758 17.625 25.5234 17.6523 26.043 17.6797C26.5625 17.707 27.0273 17.7891 27.4102 17.8984C27.8477 18.0625 28.2578 18.3359 28.5859 18.6641C28.9141 18.9922 29.1875 19.4023 29.3516 19.8398C29.4609 20.2227 29.543 20.6875 29.5977 21.207ZM28.2852 27.3594C28.3945 27.0586 28.4492 26.5664 28.5039 25.8828C28.5039 25.5 28.5312 24.9258 28.5312 24.1875V23.3125C28.5312 22.5742 28.5039 22 28.5039 21.6172C28.4492 20.9336 28.3945 20.4414 28.2852 20.1406C28.0664 19.5938 27.6562 19.1836 27.1094 18.9648C26.8086 18.8555 26.3164 18.8008 25.6328 18.7461C25.2227 18.7461 24.6484 18.7188 23.9375 18.7188H23.0625C22.3242 18.7188 21.75 18.7461 21.3672 18.7461C20.6836 18.8008 20.1914 18.8555 19.8906 18.9648C19.3164 19.1836 18.9336 19.5938 18.7148 20.1406C18.6055 20.4414 18.5234 20.9336 18.4961 21.6172C18.4688 22.0273 18.4688 22.6016 18.4688 23.3125V24.1875C18.4688 24.9258 18.4688 25.5 18.4961 25.8828C18.5234 26.5664 18.6055 27.0586 18.7148 27.3594C18.9336 27.9336 19.3438 28.3164 19.8906 28.5352C20.1914 28.6445 20.6836 28.7266 21.3672 28.7539C21.75 28.7812 22.3242 28.7812 23.0625 28.7812H23.9375C24.6758 28.7812 25.25 28.7812 25.6328 28.7539C26.3164 28.7266 26.8086 28.6445 27.1094 28.5352C27.6562 28.3164 28.0664 27.9062 28.2852 27.3594Z" fill="white"/>
</g>
<defs>
<clipPath id="clip0_156_190">
<rect width="48" height="48" fill="white"/>
</clipPath>
<clipPath id="clip1_156_190">
<rect width="48" height="48" fill="white"/>
</clipPath>
</defs>
</svg>
