<svg width="48" height="48" viewBox="0 0 48 48" fill="none" xmlns="http://www.w3.org/2000/svg">
<g clip-path="url(#clip0_156_170)">
<g clip-path="url(#clip1_156_170)">
<rect opacity="0.1" width="48" height="48" rx="24" fill="#6D5DD3"/>
<path d="M21.2 20.3601C20.2346 20.3601 19.3088 20.7436 18.6261 21.4262C17.9435 22.1089 17.56 23.0347 17.56 24.0001C17.56 24.9655 17.9435 25.8913 18.6261 26.574C19.3088 27.2566 20.2346 27.6401 21.2 27.6401C22.1654 27.6401 23.0912 27.2566 23.7739 26.574C24.4565 25.8913 24.84 24.9655 24.84 24.0001C24.84 23.0347 24.4565 22.1089 23.7739 21.4262C23.0912 20.7436 22.1654 20.3601 21.2 20.3601ZM26.94 20.6401C25.9348 20.6401 25.12 22.1445 25.12 24.0001C25.12 24.3481 25.1486 24.6836 25.2018 24.9991C25.2726 25.42 25.3871 25.8053 25.5355 26.1373C25.6097 26.3034 25.6923 26.456 25.7822 26.5929C25.962 26.8667 26.1708 27.0781 26.3988 27.2092C26.5698 27.3072 26.7516 27.3601 26.94 27.3601C27.1284 27.3601 27.3102 27.3072 27.4812 27.2092C27.7092 27.0781 27.918 26.8667 28.0978 26.5929C28.1877 26.456 28.2703 26.3034 28.3445 26.1373C28.4929 25.8055 28.6074 25.42 28.6782 24.9991C28.7314 24.6836 28.76 24.3481 28.76 24.0001C28.76 22.1445 27.9452 20.6401 26.94 20.6401ZM29.74 20.9201C29.6675 20.9201 29.5975 20.9685 29.532 21.0587C29.488 21.1186 29.446 21.197 29.4065 21.2919C29.3866 21.3393 29.3673 21.3908 29.3488 21.4462C29.3116 21.5568 29.2769 21.6831 29.2452 21.8223C29.182 22.1009 29.1307 22.4329 29.0952 22.8014C29.0775 22.9857 29.0638 23.1791 29.0543 23.3796C29.0448 23.5798 29.04 23.7876 29.04 24.0001C29.04 24.2126 29.0448 24.4204 29.0543 24.6209C29.0635 24.8213 29.0772 25.0148 29.0952 25.1991C29.1307 25.5675 29.182 25.8993 29.2452 26.1782C29.2769 26.3177 29.3116 26.4437 29.3488 26.5543C29.3673 26.6097 29.3866 26.6612 29.4065 26.7085C29.4463 26.8035 29.4883 26.8819 29.532 26.9418C29.5975 27.0317 29.6675 27.0801 29.74 27.0801C30.1267 27.0801 30.44 25.7011 30.44 24.0001C30.44 22.2991 30.1267 20.9201 29.74 20.9201Z" fill="white"/>
</g>
</g>
<defs>
<clipPath id="clip0_156_170">
<rect width="48" height="48" fill="white"/>
</clipPath>
<clipPath id="clip1_156_170">
<rect width="48" height="48" fill="white"/>
</clipPath>
</defs>
</svg>
