<svg width="48" height="48" viewBox="0 0 48 48" fill="none" xmlns="http://www.w3.org/2000/svg">
<g clip-path="url(#clip0_156_180)">
<g clip-path="url(#clip1_156_180)">
<rect opacity="0.1" width="48" height="48" rx="24" fill="#6D5DD3"/>
</g>
<path d="M29.5508 20.9062C30.0977 20.4961 30.5898 20.0039 31 19.4023C30.4531 19.6484 29.9062 19.8125 29.3594 19.8672C29.9609 19.4844 30.3984 18.9648 30.6172 18.2812C30.043 18.6094 29.4414 18.8555 28.7852 18.9648C28.5117 18.6914 28.1836 18.4727 27.8281 18.3086C27.4727 18.1445 27.0898 18.0625 26.6797 18.0625C26.1602 18.0625 25.6953 18.1992 25.2578 18.4453C24.8203 18.7188 24.4648 19.0742 24.2188 19.5117C23.9453 19.9492 23.8359 20.4414 23.8359 20.9336C23.8359 21.1523 23.8359 21.3711 23.8906 21.5898C22.7148 21.5352 21.6211 21.2617 20.582 20.7148C19.543 20.1953 18.6953 19.4844 17.9844 18.582C17.7109 19.0469 17.5742 19.5391 17.5742 20.0312C17.5742 20.5234 17.6836 20.9883 17.9297 21.3984C18.1484 21.8359 18.4766 22.1641 18.8594 22.4375C18.3945 22.4375 17.957 22.3008 17.5742 22.0547V22.1094C17.5742 22.793 17.793 23.3945 18.2305 23.9141C18.668 24.4609 19.2148 24.7891 19.8711 24.9258C19.5977 24.9805 19.3516 25.0078 19.1055 25.0078C18.9414 25.0078 18.75 25.0078 18.5859 24.9805C18.75 25.5547 19.0781 26.0195 19.5703 26.4023C20.0625 26.7852 20.6094 26.9492 21.2656 26.9492C20.1992 27.7695 18.9961 28.1797 17.6836 28.1797C17.4102 28.1797 17.1914 28.1797 17 28.1523C18.3125 29.0273 19.7891 29.4375 21.4023 29.4375C23.0703 29.4375 24.5469 29.0273 25.8594 28.1523C27.0352 27.3867 27.9648 26.375 28.6211 25.0625C29.25 23.8594 29.5781 22.5742 29.5781 21.2617C29.5781 21.0977 29.5508 20.9883 29.5508 20.9062Z" fill="white"/>
</g>
<defs>
<clipPath id="clip0_156_180">
<rect width="48" height="48" fill="white"/>
</clipPath>
<clipPath id="clip1_156_180">
<rect width="48" height="48" fill="white"/>
</clipPath>
</defs>
</svg>
